<?xml version="1.0" encoding="UTF-8"?>
<svg xmlns="http://www.w3.org/2000/svg" xmlns:xlink="http://www.w3.org/1999/xlink" width="44px" height="44px" viewBox="0 0 44 44" version="1.1">
<g id="surface1">
<path style=" stroke:none;fill-rule:nonzero;fill:rgb(100%,78.431373%,26.27451%);fill-opacity:1;" d="M 44 22 C 44 34.148438 34.148438 44 22 44 C 9.851562 44 0 34.148438 0 22 C 0 9.851562 9.851562 0 22 0 C 34.148438 0 44 9.851562 44 22 Z M 44 22 "/>
<path style=" stroke:none;fill-rule:nonzero;fill:rgb(82.745098%,52.941176%,0%);fill-opacity:1;" d="M 39.109375 22 C 39.109375 31.449219 31.449219 39.109375 22 39.109375 C 12.550781 39.109375 4.890625 31.449219 4.890625 22 C 4.890625 12.550781 12.550781 4.890625 22 4.890625 C 31.449219 4.890625 39.109375 12.550781 39.109375 22 Z M 39.109375 22 "/>
<path style=" stroke:none;fill-rule:nonzero;fill:rgb(100%,78.431373%,26.27451%);fill-opacity:1;" d="M 28.511719 29.640625 L 19.800781 29.640625 C 21 27.878906 21.285156 25.695312 21.335938 23.464844 L 25.265625 23.464844 C 26.074219 23.464844 26.734375 22.808594 26.734375 22 C 26.734375 21.191406 26.074219 20.535156 25.265625 20.535156 L 21.257812 20.535156 C 21.195312 16.925781 22.023438 15.460938 22.78125 14.871094 C 23.691406 14.171875 25.222656 14.1875 27.332031 14.925781 C 28.097656 15.191406 28.933594 14.789062 29.203125 14.023438 C 29.46875 13.261719 29.066406 12.421875 28.300781 12.15625 C 25.195312 11.070312 22.734375 11.203125 20.988281 12.550781 C 19.148438 13.972656 18.269531 16.59375 18.324219 20.535156 L 15.492188 20.535156 C 14.679688 20.535156 14.023438 21.191406 14.023438 22 C 14.023438 22.808594 14.679688 23.464844 15.492188 23.464844 L 18.398438 23.464844 C 18.277344 27.28125 17.402344 28.808594 14.96875 29.734375 C 14.304688 29.988281 13.917969 30.675781 14.046875 31.371094 C 14.175781 32.066406 14.78125 32.574219 15.488281 32.574219 L 28.511719 32.574219 C 29.320312 32.574219 29.976562 31.917969 29.976562 31.105469 C 29.976562 30.296875 29.320312 29.640625 28.511719 29.640625 Z M 28.511719 29.640625 "/>
</g>
</svg>
